<?xml version="1.0" encoding="UTF-8" standalone="no"?>
<svg
   xmlns:osb="http://www.openswatchbook.org/uri/2009/osb"
   xmlns:dc="http://purl.org/dc/elements/1.1/"
   xmlns:cc="http://creativecommons.org/ns#"
   xmlns:rdf="http://www.w3.org/1999/02/22-rdf-syntax-ns#"
   xmlns:svg="http://www.w3.org/2000/svg"
   xmlns="http://www.w3.org/2000/svg"
   xmlns:sodipodi="http://sodipodi.sourceforge.net/DTD/sodipodi-0.dtd"
   xmlns:inkscape="http://www.inkscape.org/namespaces/inkscape"
   sodipodi:docname="np_logo.svg"
   inkscape:version="1.0beta2 (2b71d25, 2019-12-03)"
   version="1.1"
   id="svg2"
   viewBox="0 0 237.13453 237.13452"
   height="66.924637mm"
   width="66.924637mm">
  <defs
     id="defs4">
    <linearGradient
       osb:paint="solid"
       id="linearGradient2803">
      <stop
         id="stop2801"
         offset="0"
         style="stop-color:#000000;stop-opacity:1;" />
    </linearGradient>
  </defs>
  <sodipodi:namedview
     inkscape:document-rotation="0"
     fit-margin-bottom="0"
     fit-margin-right="0"
     fit-margin-left="0"
     fit-margin-top="0"
     inkscape:window-maximized="1"
     inkscape:window-y="23"
     inkscape:window-x="36"
     inkscape:window-height="855"
     inkscape:window-width="1404"
     showgrid="false"
     inkscape:current-layer="g4177"
     inkscape:document-units="px"
     inkscape:cy="120.25899"
     inkscape:cx="51.145877"
     inkscape:zoom="2.2041219"
     inkscape:pageshadow="2"
     inkscape:pageopacity="0.0"
     borderopacity="1.0"
     bordercolor="#666666"
     pagecolor="#ffffff"
     id="base" />
  <metadata
     id="metadata7">
    <rdf:RDF>
      <cc:Work
         rdf:about="">
        <dc:format>image/svg+xml</dc:format>
        <dc:type
           rdf:resource="http://purl.org/dc/dcmitype/StillImage" />
        <dc:title />
      </cc:Work>
    </rdf:RDF>
  </metadata>
  <g
     transform="translate(-5.7108626,-167.45267)"
     id="layer1"
     inkscape:groupmode="layer"
     inkscape:label="Layer 1">
    <g
       transform="matrix(0.59286706,0,0,0.59286706,2.3250803,164.72076)"
       id="g4177">
      <circle
         style="opacity:1;fill:#ffffff;fill-opacity:1;stroke:#ff0000;stroke-width:3.62173176;stroke-miterlimit:4;stroke-dasharray:none;stroke-opacity:1"
         id="path6972"
         cx="205.70047"
         cy="204.59756"
         r="198.17874" />
      <g
         id="g6935"
         transform="matrix(0.50143909,-0.25759809,0.25759809,0.50143909,-277.23288,-40.284125)"
         style="stroke:#ff0000;stroke-width:2.14150691;stroke-miterlimit:4;stroke-dasharray:none;stroke-opacity:1">
        <path
           inkscape:connector-curvature="0"
           style="fill:none;stroke:#ff0000;stroke-width:2.14150691;stroke-miterlimit:4;stroke-dasharray:none;stroke-opacity:1"
           d="m 424.30747,621.74274 c -2.50937,0 -3.01125,0.25093 -3.01125,1.50562 0,0.8281 -0.33876,1.50563 -0.75281,1.50563 -0.41404,0 -0.75281,0.67753 -0.75281,1.50562 0,0.82809 -0.33876,1.50562 -0.75281,1.50562 -0.41405,0 -0.75281,0.67753 -0.75281,1.50563 0,0.82809 -0.33877,1.50562 -0.75281,1.50562 -0.41405,0 -0.75281,1.01629 -0.75281,2.25843 0,1.24214 -0.33877,2.25844 -0.75282,2.25844 -0.41404,0 -0.75281,0.67753 -0.75281,1.50562 0,0.82809 -0.33876,1.50562 -0.75281,1.50562 -0.41405,0 -0.75281,0.67753 -0.75281,1.50563 0,0.82809 -0.33877,1.50562 -0.75281,1.50562 -0.41405,0 -0.75281,0.53297 -0.75281,1.18362 0,2.26801 -2.02942,3.33325 -6.34597,3.33325 -2.30684,0 -4.19339,-0.33877 -4.19339,-0.75281 0,-0.45169 -3.01125,-0.75281 -7.52812,-0.75281 -4.51687,0 -7.52811,0.30112 -7.52811,0.75281 0,0.43559 -2.40247,0.75281 -5.7005,0.75281 -6.27827,0 -7.85011,-0.81792 -7.85011,-4.08607 0,-1.06469 -0.33877,-1.93642 -0.75281,-1.93642 -0.41405,0 -0.75282,-0.67753 -0.75282,-1.50563 0,-0.82809 -0.33876,-1.50562 -0.75281,-1.50562 -0.41404,0 -0.75281,-1.01629 -0.75281,-2.25843 0,-1.24214 -0.33876,-2.25844 -0.75281,-2.25844 -0.41405,0 -0.75281,-0.67753 -0.75281,-1.50562 0,-0.82809 -0.33877,-1.50562 -0.75281,-1.50562 -0.41405,0 -0.75282,-0.67753 -0.75282,-1.50563 0,-0.82809 -0.33876,-1.50562 -0.75281,-1.50562 -0.41404,0 -0.75281,-0.5315 -0.75281,-1.18215 0,-0.65064 -0.48479,-1.66693 -1.07629,-2.25843 -1.23376,-1.23377 -3.44058,-1.44158 -3.44058,-0.32348 0,0.41405 -1.35506,0.75281 -3.01124,0.75281 -1.65619,0 -3.01125,0.33877 -3.01125,0.75281 0,0.41405 -1.35506,0.75282 -3.01125,0.75282 -1.65618,0 -3.01124,0.33876 -3.01124,0.75281 0,0.41404 -1.0163,0.75281 -2.25844,0.75281 -1.24214,0 -2.25843,0.33876 -2.25843,0.75281 0,0.41405 -1.35506,0.75281 -3.01125,0.75281 l -3.01125,0 0,8.28093 c 0,5.01875 0.29657,8.28093 0.75282,8.28093 0.43913,0 0.75281,2.50937 0.75281,6.02249 0,5.52062 -0.12547,6.02249 -1.50563,6.02249 -0.82809,0 -1.50562,0.33877 -1.50562,0.75281 0,0.41405 -0.67753,0.75282 -1.50562,0.75282 -0.82809,0 -1.50562,0.33876 -1.50562,0.75281 0,0.41404 -0.6028,0.75281 -1.33948,0.75281 -0.73669,0 -1.82772,0.67753 -2.42458,1.50562 -0.59686,0.82809 -1.6879,1.50562 -2.42459,1.50562 -0.73669,0 -1.33947,0.33877 -1.33947,0.75282 0,0.41404 -0.60279,0.75281 -1.33948,0.75281 -0.73668,0 -1.82772,0.67753 -2.42458,1.50562 -0.59686,0.82809 -1.61315,1.50562 -2.25843,1.50562 -0.64528,0 -1.66158,0.67753 -2.25844,1.50563 -0.59686,0.82809 -1.61315,1.50562 -2.25843,1.50562 -0.64528,0 -1.66158,0.67753 -2.25844,1.50562 -0.79951,1.10926 -1.95002,1.50563 -4.3669,1.50563 -2.84316,0 -3.66496,-0.40144 -6.17246,-3.01125 -1.59126,-1.65619 -3.29282,-3.01125 -3.78023,-3.01125 -0.48741,0 -1.83474,-1.01629 -2.99507,-2.25843 -1.16033,-1.24214 -2.57742,-2.25844 -3.148,-2.25844 -0.57057,0 -1.52483,-0.67753 -2.12168,-1.50562 -0.59686,-0.82809 -1.52181,-1.50562 -2.05553,-1.50562 -1.18207,0 -19.77601,18.46678 -19.77601,19.64073 0,0.45901 1.0163,1.78328 2.25844,2.94362 1.24213,1.16033 2.25843,2.57741 2.25843,3.14798 0,0.57057 0.67753,1.52484 1.50562,2.1217 0.8281,0.59686 1.50563,1.55259 1.50563,2.12316 0,0.57057 1.01629,1.98619 2.25843,3.14652 1.24214,1.16033 2.25844,2.57741 2.25844,3.14798 0,0.57058 0.67753,1.52484 1.50562,2.1217 1.55506,1.12082 2.08371,3.76406 0.75281,3.76406 -0.41405,0 -0.75281,0.60278 -0.75281,1.33947 0,0.73668 -0.67753,1.82773 -1.50562,2.42458 -0.8281,0.59686 -1.50563,1.61316 -1.50563,2.25844 0,0.64528 -0.67753,1.66157 -1.50562,2.25843 -0.82809,0.59686 -1.50562,1.6879 -1.50562,2.42458 0,0.73669 -0.33877,1.33948 -0.75282,1.33948 -0.41404,0 -0.75281,0.60279 -0.75281,1.33947 0,0.73669 -0.67753,1.82774 -1.50562,2.42459 -0.82809,0.59685 -1.50562,1.68789 -1.50562,2.42458 0,0.73669 -0.33877,1.33948 -0.75281,1.33948 -0.41405,0 -0.75282,0.67753 -0.75282,1.50562 0,0.82809 -0.33876,1.50562 -0.75281,1.50562 -0.41404,0 -0.75281,0.67753 -0.75281,1.50563 0,0.82809 -0.33876,1.50562 -0.75281,1.50562 -0.41405,0 -0.75281,0.53297 -0.75281,1.18362 0,2.11785 -2.04063,3.33325 -5.59316,3.33325 -1.89279,0 -3.44058,-0.33877 -3.44058,-0.75281 0,-0.45169 -3.01125,-0.75281 -7.52812,-0.75281 -4.51687,0 -7.52811,-0.30113 -7.52811,-0.75282 0,-0.41404 -0.67753,-0.75281 -1.50563,-0.75281 -1.17104,0 -1.50562,0.50188 -1.50562,2.25844 0,1.24214 -0.33876,2.25843 -0.75281,2.25843 -0.41405,0 -0.75281,1.35506 -0.75281,3.01125 0,1.65618 -0.33877,3.01124 -0.75281,3.01124 -0.41405,0 -0.75282,1.35507 -0.75282,3.01125 0,1.65619 -0.33876,3.01125 -0.75281,3.01125 -0.41404,0 -0.75281,1.35506 -0.75281,3.01124 0,1.65619 -0.33876,3.01125 -0.75281,3.01125 -1.14248,0 -0.90019,3.72548 0.322,4.94767 0.5915,0.59149 1.60779,1.07482 2.25843,1.07482 0.65065,0 1.18363,0.33877 1.18363,0.75281 0,0.41405 0.67753,0.75282 1.50562,0.75282 0.82809,0 1.50562,0.33876 1.50562,0.75281 0,0.41404 1.0163,0.75281 2.25844,0.75281 1.24214,0 2.25843,0.33876 2.25843,0.75281 0,0.41405 0.67753,0.75281 1.50563,0.75281 0.82809,0 1.50562,0.33877 1.50562,0.75281 0,0.41405 0.67753,0.75282 1.50562,0.75282 0.8281,0 1.50563,0.33876 1.50563,0.75281 0,0.41404 0.5315,0.75281 1.18214,0.75281 2.80764,0 3.33473,1.83422 3.33473,11.61565 l 0,6.88116 c 0,9.78143 -0.52709,11.61418 -3.33473,11.61418 -0.65064,0 -1.18214,0.33877 -1.18214,0.75281 0,0.41405 -0.67753,0.75282 -1.50563,0.75282 -0.82809,0 -1.50562,0.33876 -1.50562,0.75281 0,0.41404 -0.67753,0.75281 -1.50562,0.75281 -0.8281,0 -1.50563,0.33876 -1.50563,0.75281 0,0.41405 -1.01629,0.75281 -2.25843,0.75281 -1.24214,0 -2.25844,0.33877 -2.25844,0.75281 0,0.41405 -0.67753,0.75282 -1.50562,0.75282 -0.82809,0 -1.50562,0.33876 -1.50562,0.75281 0,0.41404 -0.53298,0.75281 -1.18363,0.75281 -0.65064,0 -1.66693,0.48479 -2.25843,1.07628 -1.22219,1.2222 -1.46448,4.94621 -0.322,4.94621 0.41405,0 0.75281,1.35505 0.75281,3.01125 0,1.65618 0.33877,3.01124 0.75281,3.01124 0.41405,0 0.75281,1.35506 0.75281,3.01125 0,1.65618 0.33877,3.01125 0.75282,3.01125 0.41404,0 0.75281,1.35505 0.75281,3.01124 0,1.65618 0.33876,3.01125 0.75281,3.01125 0.41405,0 0.75281,1.01629 0.75281,2.25843 0,1.75655 0.33458,2.25844 1.50562,2.25844 0.8281,0 1.50563,-0.33877 1.50563,-0.75281 0,-0.45169 3.01124,-0.75281 7.52811,-0.75281 4.51687,0 7.52812,-0.30113 7.52812,-0.75282 0,-0.41405 1.54779,-0.75281 3.44058,-0.75281 3.55253,-1e-5 5.59316,1.21686 5.59316,3.33472 0,0.65064 0.33876,1.18215 0.75281,1.18215 0.41405,-10e-6 0.75281,0.67752 0.75281,1.50562 0,0.82809 0.33877,1.50563 0.75281,1.50563 0.41405,-10e-6 0.75281,0.67752 0.75281,1.50562 0,0.82809 0.33877,1.50562 0.75282,1.50562 0.41404,0 0.75281,0.60279 0.75281,1.33947 0,0.73669 0.67753,1.82774 1.50562,2.42459 0.82809,0.59685 1.50562,1.6879 1.50562,2.42458 0,0.73669 0.33877,1.33948 0.75281,1.33948 0.41405,0 0.75282,0.60278 0.75282,1.33947 0,0.73669 0.67753,1.82773 1.50562,2.42459 0.82809,0.59686 1.50562,1.61314 1.50562,2.25843 0,0.64527 0.67753,1.66158 1.50563,2.25844 0.82809,0.59686 1.50562,1.68789 1.50562,2.42458 0,0.73668 0.33876,1.33947 0.75281,1.33947 1.3309,0 0.80225,2.64324 -0.75281,3.76406 -0.82809,0.59686 -1.50562,1.55259 -1.50562,2.12316 0,0.57058 -1.0163,1.98619 -2.25844,3.14652 -1.24214,1.16033 -2.25843,2.57742 -2.25843,3.14799 0,0.57057 -0.67753,1.52484 -1.50563,2.12169 -0.82809,0.59686 -1.50562,1.5526 -1.50562,2.12317 0,0.57057 -1.0163,1.98618 -2.25843,3.14652 -1.24214,1.1603 -2.25844,2.48608 -2.25844,2.94507 0,1.17393 18.59394,19.63927 19.77601,19.63927 0.53372,0 1.45867,-0.67753 2.05553,-1.50562 0.59685,-0.8281 1.55111,-1.50562 2.12168,-1.50562 0.57058,-10e-6 1.98767,-1.01631 3.148,-2.25844 1.16033,-1.24214 2.50766,-2.25843 2.99507,-2.25843 0.48741,0 2.18897,-1.35506 3.78023,-3.01125 2.5075,-2.60985 3.3293,-3.01125 6.17246,-3.01125 2.41688,0 3.56739,0.39636 4.3669,1.50563 0.59686,0.82809 1.61316,1.50562 2.25844,1.50562 0.64528,-1e-5 1.66157,0.67752 2.25843,1.50562 0.59686,0.8281 1.61316,1.50563 2.25844,1.50563 0.64528,-10e-6 1.66157,0.67752 2.25843,1.50562 0.59686,0.82809 1.6879,1.50562 2.42458,1.50562 0.73669,0 1.33948,0.33877 1.33948,0.75282 0,0.41404 0.60278,0.75281 1.33947,0.75281 0.73669,-10e-6 1.82773,0.67752 2.42459,1.50562 0.59686,0.82809 1.68789,1.50562 2.42458,1.50562 0.73668,0 1.33948,0.33877 1.33948,0.75281 0,0.41405 0.67753,0.75282 1.50562,0.75282 0.82809,0 1.50562,0.33876 1.50562,0.75281 0,0.41404 0.67753,0.75281 1.50562,0.75281 1.38016,0 1.50563,0.50189 1.50563,6.02251 0,3.51314 -0.31368,6.02249 -0.75281,6.02249 -0.45625,0 -0.75282,3.26216 -0.75282,8.28093 l 0,8.28092 3.01125,0 c 1.65619,0 3.01125,0.33877 3.01125,0.75282 0,0.41404 1.01629,0.75281 2.25843,0.75281 1.24214,0 2.25844,0.33876 2.25844,0.75281 0,0.41404 1.35506,0.75281 3.01124,0.75281 1.65619,0 3.01125,0.33877 3.01125,0.75281 0,0.41405 1.35506,0.75281 3.01125,0.75281 1.65618,0 3.01124,0.33877 3.01124,0.75281 0,1.11808 2.20682,0.91173 3.44058,-0.32205 0.5915,-0.59148 1.07629,-1.60778 1.07629,-2.25843 0,-0.65066 0.33877,-1.18357 0.75281,-1.18357 0.41405,0 0.75281,-0.67753 0.75281,-1.50563 0,-0.82809 0.33877,-1.50562 0.75282,-1.50562 0.41404,0 0.75281,-0.67753 0.75281,-1.50562 0,-0.8281 0.33876,-1.50563 0.75281,-1.50563 0.41405,0 0.75281,-1.01629 0.75281,-2.25843 0,-1.24214 0.33877,-2.25843 0.75281,-2.25843 0.41405,0 0.75281,-0.67754 0.75281,-1.50563 0,-0.82809 0.33877,-1.50562 0.75282,-1.50562 0.41404,0 0.75281,-0.87025 0.75281,-1.93495 0,-3.26818 1.57184,-4.08754 7.85011,-4.08754 3.29803,0 5.7005,0.31723 5.7005,0.75281 0,0.45168 3.01124,0.75281 7.52811,0.75281 4.51687,0 7.52812,-0.30113 7.52812,-0.75281 0,-0.41405 1.88655,-0.75281 4.19339,-0.75281 4.31655,0 6.34597,1.06665 6.34597,3.33473 0,0.65065 0.33876,1.18214 0.75281,1.18214 0.41404,0 0.75281,0.67753 0.75281,1.50562 0,0.82809 0.33876,1.50562 0.75281,1.50562 0.41405,0 0.75281,0.67753 0.75281,1.50563 0,0.82809 0.33877,1.50562 0.75281,1.50562 0.41405,0 0.75282,1.01629 0.75282,2.25843 0,1.24214 0.33876,2.25844 0.75281,2.25844 0.41404,0 0.75281,0.67753 0.75281,1.50562 0,0.82809 0.33876,1.50562 0.75281,1.50562 0.41405,0 0.75281,0.67753 0.75281,1.50563 0,0.82809 0.33877,1.50562 0.75281,1.50562 0.41405,0 0.75281,0.67753 0.75281,1.50562 0,1.25471 0.50188,1.50563 3.01125,1.50563 1.65619,0 3.01125,-0.33877 3.01125,-0.75282 0,-0.41404 1.35506,-0.75281 3.01124,-0.75281 1.65619,0 3.01125,-0.33876 3.01125,-0.75281 0,-0.41404 1.35506,-0.75281 3.01125,-0.75281 1.65618,0 3.01124,-0.33877 3.01124,-0.75281 0,-0.41405 1.0163,-0.75281 2.25844,-0.75281 1.24214,0 2.25843,-0.33877 2.25843,-0.75281 0,-0.41405 1.0163,-0.75282 2.25844,-0.75282 2.25843,0 2.25843,0 2.25843,-4.51687 0,-2.50934 -0.33458,-4.51686 -0.75281,-4.51686 -0.43914,0 -0.75281,-2.50935 -0.75281,-6.0225 0,-3.51314 -0.31368,-6.02249 -0.75281,-6.02249 -1.15516,0 -0.89395,-5.23591 0.322,-6.45185 0.5915,-0.59149 1.60779,-1.07628 2.25843,-1.07628 0.65065,0 1.18362,-0.33877 1.18362,-0.75281 0,-0.41406 0.67753,-0.75281 1.50563,-0.75281 0.82809,0 1.50562,-0.33878 1.50562,-0.75282 0,-0.41405 0.67753,-0.75281 1.50562,-0.75281 0.8281,0 1.50563,-0.33877 1.50563,-0.75281 0,-0.41405 0.60278,-0.75281 1.33947,-0.75281 0.73669,0 1.82773,-0.67753 2.42458,-1.50562 0.59686,-0.8281 1.6879,-1.50563 2.42459,-1.50563 0.73668,0 1.33947,-0.33877 1.33947,-0.75281 0,-0.41405 0.60279,-0.75281 1.33948,-0.75281 0.73668,0 1.82772,-0.67753 2.42458,-1.50562 0.59686,-0.8281 1.55112,-1.50563 2.12169,-1.50563 0.57057,0 1.98766,-1.0163 3.14799,-2.25843 2.44831,-2.62091 5.20785,-2.92753 6.77531,-0.75281 0.59685,0.82809 1.55112,1.50562 2.12169,1.50562 0.57057,0 1.98765,1.0163 3.14799,2.25844 1.16033,1.24213 2.51539,2.25843 3.01124,2.25843 0.49586,0 1.85092,1.0163 3.01125,2.25844 1.16033,1.24213 2.57594,2.25843 3.14652,2.25843 0.57057,-10e-6 1.5263,0.67752 2.12316,1.50562 0.59686,0.8281 1.54187,1.50563 2.10111,1.50563 1.22717,-1e-5 3.16857,-1.82745 3.16857,-2.98332 0,-0.45809 3.38765,-4.19723 7.52812,-8.30886 6.79608,-6.74873 8.89919,-9.78655 6.7753,-9.78655 -0.41405,-10e-6 -0.75281,-0.60285 -0.75281,-1.33948 0,-0.7367 -0.67753,-1.82775 -1.50562,-2.42458 -0.8281,-0.59686 -1.50563,-1.55112 -1.50563,-2.12169 0,-0.57057 -1.01629,-1.98766 -2.25843,-3.14799 -1.24214,-1.16034 -2.25844,-2.51539 -2.25844,-3.01124 0,-0.49586 -1.01629,-1.85092 -2.25843,-3.01125 -1.84422,-1.72276 -2.25844,-2.71361 -2.25844,-5.40495 0,-2.43223 0.39452,-3.58076 1.50563,-4.3816 0.82809,-0.59686 1.50562,-1.61315 1.50562,-2.25843 0,-0.64528 0.67753,-1.66159 1.50562,-2.25844 1.30237,-0.97421 1.12926,-2.71833 2.25844,-3.76406 0.41404,0 0.75281,-0.60279 0.75281,-1.33947 0.0716,-2.12862 3.42315,-4.07387 3.76406,-6.18864 0.97486,-1.20264 0.3619,-3.19335 1.50562,-4.51687 0.76664,-0.79193 0.52538,-2.16601 1.50562,-3.01125 0.41405,0 0.75282,-0.67753 0.75282,-1.50562 0,-1.3941 0.50187,-1.50562 6.7753,-1.50562 4.01499,0 6.7753,0.3067 6.7753,0.75281 0,0.43913 2.50937,0.75281 6.0225,0.75281 3.51312,-10e-6 6.02249,0.31366 6.02249,0.75281 0,0.41405 0.33876,0.75281 0.75281,0.75281 0.41405,-10e-6 0.75281,-1.0163 0.75281,-2.25843 0,-1.24214 0.33877,-2.25844 0.75281,-2.25844 0.41405,0 0.75282,-1.35506 0.75282,-3.01124 0,-1.65619 0.33876,-3.01125 0.75281,-3.01125 0.41404,0 0.75281,-1.35506 0.75281,-3.01125 0,-1.65618 0.33876,-3.01124 0.75281,-3.01124 0.41405,0 0.75281,-1.35506 0.75281,-3.01125 0,-1.65618 0.33877,-3.01125 0.75281,-3.01125 0.41405,0 0.75281,-1.35506 0.75281,-3.01124 0,-2.50938 -0.25093,-3.01125 -1.50562,-3.01125 -0.82809,0 -1.50562,-0.33877 -1.50562,-0.75281 0,-0.41405 -0.67753,-0.75281 -1.50562,-0.75281 -0.8281,0 -1.50563,-0.33877 -1.50563,-0.75281 0,-0.41406 -0.67753,-0.75281 -1.50562,-0.75281 -0.82809,0 -1.50562,-0.33878 -1.50562,-0.75282 0,-0.41405 -1.0163,-0.75281 -2.25844,-0.75281 -1.24214,0 -2.25843,-0.33877 -2.25843,-0.75281 0,-0.41405 -0.67753,-0.75281 -1.50563,-0.75281 -0.82809,0 -1.50562,-0.33877 -1.50562,-0.75281 0,-0.41406 -0.67753,-0.75281 -1.50562,-0.75281 -0.8281,0 -1.50563,-0.33878 -1.50563,-0.75282 0,-0.41405 -1.01629,-0.75281 -2.25843,-0.75281 -2.13296,0 -2.25844,-0.16729 -2.25844,-3.01124 0,-1.65619 0.33877,-3.01125 0.75282,-3.01125 0.27049,0 0.47561,-1.17331 0.60577,-3.00978 l 0.14704,0 0,-4.51834 0,-3.00977 0,-4.51834 -0.14704,0.005 c -0.13013,-1.83905 -0.33507,-3.01419 -0.60577,-3.01419 -0.41405,0 -0.75282,-1.35506 -0.75282,-3.01124 0,-2.84396 0.12548,-3.01125 2.25844,-3.01125 1.24214,0 2.25843,-0.33876 2.25843,-0.75281 0,-0.41405 0.67753,-0.75281 1.50563,-0.75281 0.82809,0 1.50562,-0.33877 1.50562,-0.75281 0,-0.41405 0.67753,-0.75282 1.50562,-0.75282 0.8281,0 1.50563,-0.33876 1.50563,-0.75281 0,-0.41404 1.01629,-0.75281 2.25843,-0.75281 1.24214,0 2.25844,-0.33876 2.25844,-0.75281 0,-0.41405 0.67753,-0.75281 1.50562,-0.75281 0.82809,0 1.50562,-0.33877 1.50562,-0.75281 0,-0.41405 0.67753,-0.75281 1.50563,-0.75281 0.82809,0 1.50562,-0.33877 1.50562,-0.75282 0,-0.41404 0.67753,-0.75281 1.50562,-0.75281 1.25469,0 1.50562,-0.50187 1.50562,-3.01124 0,-1.65619 -0.33876,-3.01125 -0.75281,-3.01125 -0.41404,0 -0.75281,-1.35506 -0.75281,-3.01125 0,-1.65618 -0.33876,-3.01124 -0.75281,-3.01124 -0.41405,0 -0.75281,-1.35506 -0.75281,-3.01125 0,-1.65618 -0.33877,-3.01125 -0.75281,-3.01125 -0.41405,0 -0.75281,-1.35506 -0.75281,-3.01124 0,-1.65619 -0.33877,-3.01125 -0.75282,-3.01125 -0.41404,0 -0.75281,-1.01629 -0.75281,-2.25843 0,-1.24214 -0.33876,-2.25844 -0.75281,-2.25844 -0.41405,0 -0.75281,0.33877 -0.75281,0.75281 0,0.43914 -2.50937,0.75282 -6.02249,0.75282 -3.51313,0 -6.0225,0.31367 -6.0225,0.75281 0,0.44611 -2.76031,0.75281 -6.7753,0.75281 -6.27343,0 -6.7753,-0.11153 -6.7753,-1.50562 0,-0.8281 -0.33877,-1.50563 -0.75282,-1.50563 -0.41404,0 -0.75281,-0.67753 -0.75281,-1.50562 0,-0.82809 -0.33876,-1.50562 -0.75281,-1.50562 -0.41405,0 -0.75281,-1.0163 -0.75281,-2.25844 0,-1.24214 -0.33877,-2.25843 -0.75281,-2.25843 -0.41405,0 -0.75281,-0.60279 -0.75281,-1.33948 0,-0.73669 -0.67753,-1.82773 -1.50563,-2.42458 -0.82809,-0.59685 -1.50562,-1.6879 -1.50562,-2.42459 0,-0.73668 -0.33877,-1.33947 -0.75281,-1.33947 -0.41405,0 -0.75281,-0.60279 -0.75281,-1.33948 0,-0.73668 -0.67753,-1.82772 -1.50563,-2.42458 -0.82809,-0.59686 -1.50562,-1.61315 -1.50562,-2.25843 0,-0.64528 -0.67753,-1.66158 -1.50562,-2.25844 -1.11111,-0.80084 -1.50563,-1.9479 -1.50563,-4.38012 0,-2.69134 0.41422,-3.68367 2.25844,-5.40643 1.24214,-1.16033 2.25843,-2.51539 2.25843,-3.01124 0,-0.49586 1.0163,-1.85092 2.25844,-3.01125 1.24214,-1.16033 2.25843,-2.57595 2.25843,-3.14652 0,-0.57057 0.67753,-1.5263 1.50563,-2.12316 0.82809,-0.59686 1.50562,-1.6879 1.50562,-2.42459 0,-0.73668 0.33876,-1.33947 0.75281,-1.33947 2.12389,0 0.0208,-3.03782 -6.7753,-9.78655 -4.14047,-4.11161 -7.52812,-7.84935 -7.52812,-8.30739 0,-1.1559 -1.9414,-2.98478 -3.16857,-2.98478 -0.55924,0 -1.50425,0.67753 -2.10111,1.50562 -0.59686,0.82809 -1.55259,1.50562 -2.12316,1.50562 -0.57058,0 -1.98619,1.0163 -3.14652,2.25844 -1.16033,1.24214 -2.51539,2.25843 -3.01125,2.25843 -0.49585,0 -1.85091,1.0163 -3.01124,2.25844 -1.16034,1.24214 -2.57742,2.25843 -3.14799,2.25843 -0.57057,0 -1.52484,0.67753 -2.12169,1.50563 -1.56746,2.17473 -4.327,1.86811 -6.77531,-0.75282 -1.16033,-1.24213 -2.57742,-2.25843 -3.14799,-2.25843 -0.57057,0 -1.52483,-0.67753 -2.12169,-1.50562 -0.59686,-0.8281 -1.6879,-1.50563 -2.42458,-1.50563 -0.73669,0 -1.33948,-0.33876 -1.33948,-0.75281 0,-0.41404 -0.60279,-0.75281 -1.33947,-0.75281 -0.73669,0 -1.82773,-0.67753 -2.42459,-1.50562 -0.59685,-0.8281 -1.68789,-1.50563 -2.42458,-1.50563 -0.73669,0 -1.33947,-0.33876 -1.33947,-0.75281 0,-0.41404 -0.67753,-0.75281 -1.50563,-0.75281 -0.82809,0 -1.50562,-0.33876 -1.50562,-0.75281 0,-0.41405 -0.67753,-0.75281 -1.50562,-0.75281 -0.8281,0 -1.50563,-0.33877 -1.50563,-0.75281 0,-0.41405 -0.53297,-0.75281 -1.18362,-0.75281 -0.65064,0 -1.66693,-0.48333 -2.25843,-1.07482 -1.21595,-1.21596 -1.47716,-6.4533 -0.322,-6.4533 0.43913,0 0.75281,-2.50937 0.75281,-6.02249 0,-3.51313 0.31367,-6.0225 0.75281,-6.0225 0.41823,0 0.75281,-2.0075 0.75281,-4.51687 0,-4.51686 0,-4.51686 -2.25843,-4.51686 -1.24214,0 -2.25844,-0.33877 -2.25844,-0.75282 0,-0.41404 -1.01629,-0.75281 -2.25843,-0.75281 -1.24214,0 -2.25844,-0.33876 -2.25844,-0.75281 0,-0.41405 -1.35506,-0.75281 -3.01124,-0.75281 -1.65619,0 -3.01125,-0.33877 -3.01125,-0.75281 0,-0.41405 -1.35506,-0.75281 -3.01125,-0.75281 -1.65618,0 -3.01124,-0.33877 -3.01124,-0.75282 0,-0.41404 -1.35506,-0.75281 -3.01125,-0.75281 z"
           id="path6937" />
        <circle
           style="opacity:1;fill:none;fill-opacity:1;stroke:#ff0000;stroke-width:2.14150691;stroke-miterlimit:4;stroke-dasharray:none;stroke-opacity:1"
           id="circle6939"
           cx="392.68875"
           cy="779.29614"
           r="32.193027" />
        <circle
           r="50.126541"
           cy="779.29614"
           cx="392.68875"
           id="circle6941"
           style="opacity:1;fill:none;fill-opacity:1;stroke:#ff0000;stroke-width:2.14150691;stroke-miterlimit:4;stroke-dasharray:none;stroke-opacity:1" />
        <circle
           style="opacity:1;fill:none;fill-opacity:1;stroke:#ff0000;stroke-width:2.14150691;stroke-miterlimit:4;stroke-dasharray:none;stroke-opacity:1"
           id="circle6943"
           cx="392.68875"
           cy="779.29614"
           r="119.58523" />
      </g>
      <g
         id="g6945"
         transform="matrix(0.54768454,0.13356486,-0.13356486,0.54768454,93.821031,-372.82365)"
         style="stroke:#ff0000;stroke-width:2.14150691;stroke-miterlimit:4;stroke-dasharray:none;stroke-opacity:1">
        <path
           inkscape:connector-curvature="0"
           style="fill:none;stroke:#ff0000;stroke-opacity:1"
           d="m 424.30747,621.74274 c -2.50937,0 -3.01125,0.25093 -3.01125,1.50562 0,0.8281 -0.33876,1.50563 -0.75281,1.50563 -0.41404,0 -0.75281,0.67753 -0.75281,1.50562 0,0.82809 -0.33876,1.50562 -0.75281,1.50562 -0.41405,0 -0.75281,0.67753 -0.75281,1.50563 0,0.82809 -0.33877,1.50562 -0.75281,1.50562 -0.41405,0 -0.75281,1.01629 -0.75281,2.25843 0,1.24214 -0.33877,2.25844 -0.75282,2.25844 -0.41404,0 -0.75281,0.67753 -0.75281,1.50562 0,0.82809 -0.33876,1.50562 -0.75281,1.50562 -0.41405,0 -0.75281,0.67753 -0.75281,1.50563 0,0.82809 -0.33877,1.50562 -0.75281,1.50562 -0.41405,0 -0.75281,0.53297 -0.75281,1.18362 0,2.26801 -2.02942,3.33325 -6.34597,3.33325 -2.30684,0 -4.19339,-0.33877 -4.19339,-0.75281 0,-0.45169 -3.01125,-0.75281 -7.52812,-0.75281 -4.51687,0 -7.52811,0.30112 -7.52811,0.75281 0,0.43559 -2.40247,0.75281 -5.7005,0.75281 -6.27827,0 -7.85011,-0.81792 -7.85011,-4.08607 0,-1.06469 -0.33877,-1.93642 -0.75281,-1.93642 -0.41405,0 -0.75282,-0.67753 -0.75282,-1.50563 0,-0.82809 -0.33876,-1.50562 -0.75281,-1.50562 -0.41404,0 -0.75281,-1.01629 -0.75281,-2.25843 0,-1.24214 -0.33876,-2.25844 -0.75281,-2.25844 -0.41405,0 -0.75281,-0.67753 -0.75281,-1.50562 0,-0.82809 -0.33877,-1.50562 -0.75281,-1.50562 -0.41405,0 -0.75282,-0.67753 -0.75282,-1.50563 0,-0.82809 -0.33876,-1.50562 -0.75281,-1.50562 -0.41404,0 -0.75281,-0.5315 -0.75281,-1.18215 0,-0.65064 -0.48479,-1.66693 -1.07629,-2.25843 -1.23376,-1.23377 -3.44058,-1.44158 -3.44058,-0.32348 0,0.41405 -1.35506,0.75281 -3.01124,0.75281 -1.65619,0 -3.01125,0.33877 -3.01125,0.75281 0,0.41405 -1.35506,0.75282 -3.01125,0.75282 -1.65618,0 -3.01124,0.33876 -3.01124,0.75281 0,0.41404 -1.0163,0.75281 -2.25844,0.75281 -1.24214,0 -2.25843,0.33876 -2.25843,0.75281 0,0.41405 -1.35506,0.75281 -3.01125,0.75281 l -3.01125,0 0,8.28093 c 0,5.01875 0.29657,8.28093 0.75282,8.28093 0.43913,0 0.75281,2.50937 0.75281,6.02249 0,5.52062 -0.12547,6.02249 -1.50563,6.02249 -0.82809,0 -1.50562,0.33877 -1.50562,0.75281 0,0.41405 -0.67753,0.75282 -1.50562,0.75282 -0.82809,0 -1.50562,0.33876 -1.50562,0.75281 0,0.41404 -0.6028,0.75281 -1.33948,0.75281 -0.73669,0 -1.82772,0.67753 -2.42458,1.50562 -0.59686,0.82809 -1.6879,1.50562 -2.42459,1.50562 -0.73669,0 -1.33947,0.33877 -1.33947,0.75282 0,0.41404 -0.60279,0.75281 -1.33948,0.75281 -0.73668,0 -1.82772,0.67753 -2.42458,1.50562 -0.59686,0.82809 -1.61315,1.50562 -2.25843,1.50562 -0.64528,0 -1.66158,0.67753 -2.25844,1.50563 -0.59686,0.82809 -1.61315,1.50562 -2.25843,1.50562 -0.64528,0 -1.66158,0.67753 -2.25844,1.50562 -0.79951,1.10926 -1.95002,1.50563 -4.3669,1.50563 -2.84316,0 -3.66496,-0.40144 -6.17246,-3.01125 -1.59126,-1.65619 -3.29282,-3.01125 -3.78023,-3.01125 -0.48741,0 -1.83474,-1.01629 -2.99507,-2.25843 -1.16033,-1.24214 -2.57742,-2.25844 -3.148,-2.25844 -0.57057,0 -1.52483,-0.67753 -2.12168,-1.50562 -0.59686,-0.82809 -1.52181,-1.50562 -2.05553,-1.50562 -1.18207,0 -19.77601,18.46678 -19.77601,19.64073 0,0.45901 1.0163,1.78328 2.25844,2.94362 1.24213,1.16033 2.25843,2.57741 2.25843,3.14798 0,0.57057 0.67753,1.52484 1.50562,2.1217 0.8281,0.59686 1.50563,1.55259 1.50563,2.12316 0,0.57057 1.01629,1.98619 2.25843,3.14652 1.24214,1.16033 2.25844,2.57741 2.25844,3.14798 0,0.57058 0.67753,1.52484 1.50562,2.1217 1.55506,1.12082 2.08371,3.76406 0.75281,3.76406 -0.41405,0 -0.75281,0.60278 -0.75281,1.33947 0,0.73668 -0.67753,1.82773 -1.50562,2.42458 -0.8281,0.59686 -1.50563,1.61316 -1.50563,2.25844 0,0.64528 -0.67753,1.66157 -1.50562,2.25843 -0.82809,0.59686 -1.50562,1.6879 -1.50562,2.42458 0,0.73669 -0.33877,1.33948 -0.75282,1.33948 -0.41404,0 -0.75281,0.60279 -0.75281,1.33947 0,0.73669 -0.67753,1.82774 -1.50562,2.42459 -0.82809,0.59685 -1.50562,1.68789 -1.50562,2.42458 0,0.73669 -0.33877,1.33948 -0.75281,1.33948 -0.41405,0 -0.75282,0.67753 -0.75282,1.50562 0,0.82809 -0.33876,1.50562 -0.75281,1.50562 -0.41404,0 -0.75281,0.67753 -0.75281,1.50563 0,0.82809 -0.33876,1.50562 -0.75281,1.50562 -0.41405,0 -0.75281,0.53297 -0.75281,1.18362 0,2.11785 -2.04063,3.33325 -5.59316,3.33325 -1.89279,0 -3.44058,-0.33877 -3.44058,-0.75281 0,-0.45169 -3.01125,-0.75281 -7.52812,-0.75281 -4.51687,0 -7.52811,-0.30113 -7.52811,-0.75282 0,-0.41404 -0.67753,-0.75281 -1.50563,-0.75281 -1.17104,0 -1.50562,0.50188 -1.50562,2.25844 0,1.24214 -0.33876,2.25843 -0.75281,2.25843 -0.41405,0 -0.75281,1.35506 -0.75281,3.01125 0,1.65618 -0.33877,3.01124 -0.75281,3.01124 -0.41405,0 -0.75282,1.35507 -0.75282,3.01125 0,1.65619 -0.33876,3.01125 -0.75281,3.01125 -0.41404,0 -0.75281,1.35506 -0.75281,3.01124 0,1.65619 -0.33876,3.01125 -0.75281,3.01125 -1.14248,0 -0.90019,3.72548 0.322,4.94767 0.5915,0.59149 1.60779,1.07482 2.25843,1.07482 0.65065,0 1.18363,0.33877 1.18363,0.75281 0,0.41405 0.67753,0.75282 1.50562,0.75282 0.82809,0 1.50562,0.33876 1.50562,0.75281 0,0.41404 1.0163,0.75281 2.25844,0.75281 1.24214,0 2.25843,0.33876 2.25843,0.75281 0,0.41405 0.67753,0.75281 1.50563,0.75281 0.82809,0 1.50562,0.33877 1.50562,0.75281 0,0.41405 0.67753,0.75282 1.50562,0.75282 0.8281,0 1.50563,0.33876 1.50563,0.75281 0,0.41404 0.5315,0.75281 1.18214,0.75281 2.80764,0 3.33473,1.83422 3.33473,11.61565 l 0,6.88116 c 0,9.78143 -0.52709,11.61418 -3.33473,11.61418 -0.65064,0 -1.18214,0.33877 -1.18214,0.75281 0,0.41405 -0.67753,0.75282 -1.50563,0.75282 -0.82809,0 -1.50562,0.33876 -1.50562,0.75281 0,0.41404 -0.67753,0.75281 -1.50562,0.75281 -0.8281,0 -1.50563,0.33876 -1.50563,0.75281 0,0.41405 -1.01629,0.75281 -2.25843,0.75281 -1.24214,0 -2.25844,0.33877 -2.25844,0.75281 0,0.41405 -0.67753,0.75282 -1.50562,0.75282 -0.82809,0 -1.50562,0.33876 -1.50562,0.75281 0,0.41404 -0.53298,0.75281 -1.18363,0.75281 -0.65064,0 -1.66693,0.48479 -2.25843,1.07628 -1.22219,1.2222 -1.46448,4.94621 -0.322,4.94621 0.41405,0 0.75281,1.35505 0.75281,3.01125 0,1.65618 0.33877,3.01124 0.75281,3.01124 0.41405,0 0.75281,1.35506 0.75281,3.01125 0,1.65618 0.33877,3.01125 0.75282,3.01125 0.41404,0 0.75281,1.35505 0.75281,3.01124 0,1.65618 0.33876,3.01125 0.75281,3.01125 0.41405,0 0.75281,1.01629 0.75281,2.25843 0,1.75655 0.33458,2.25844 1.50562,2.25844 0.8281,0 1.50563,-0.33877 1.50563,-0.75281 0,-0.45169 3.01124,-0.75281 7.52811,-0.75281 4.51687,0 7.52812,-0.30113 7.52812,-0.75282 0,-0.41405 1.54779,-0.75281 3.44058,-0.75281 3.55253,-1e-5 5.59316,1.21686 5.59316,3.33472 0,0.65064 0.33876,1.18215 0.75281,1.18215 0.41405,-10e-6 0.75281,0.67752 0.75281,1.50562 0,0.82809 0.33877,1.50563 0.75281,1.50563 0.41405,-10e-6 0.75281,0.67752 0.75281,1.50562 0,0.82809 0.33877,1.50562 0.75282,1.50562 0.41404,0 0.75281,0.60279 0.75281,1.33947 0,0.73669 0.67753,1.82774 1.50562,2.42459 0.82809,0.59685 1.50562,1.6879 1.50562,2.42458 0,0.73669 0.33877,1.33948 0.75281,1.33948 0.41405,0 0.75282,0.60278 0.75282,1.33947 0,0.73669 0.67753,1.82773 1.50562,2.42459 0.82809,0.59686 1.50562,1.61314 1.50562,2.25843 0,0.64527 0.67753,1.66158 1.50563,2.25844 0.82809,0.59686 1.50562,1.68789 1.50562,2.42458 0,0.73668 0.33876,1.33947 0.75281,1.33947 1.3309,0 0.80225,2.64324 -0.75281,3.76406 -0.82809,0.59686 -1.50562,1.55259 -1.50562,2.12316 0,0.57058 -1.0163,1.98619 -2.25844,3.14652 -1.24214,1.16033 -2.25843,2.57742 -2.25843,3.14799 0,0.57057 -0.67753,1.52484 -1.50563,2.12169 -0.82809,0.59686 -1.50562,1.5526 -1.50562,2.12317 0,0.57057 -1.0163,1.98618 -2.25843,3.14652 -1.24214,1.1603 -2.25844,2.48608 -2.25844,2.94507 0,1.17393 18.59394,19.63927 19.77601,19.63927 0.53372,0 1.45867,-0.67753 2.05553,-1.50562 0.59685,-0.8281 1.55111,-1.50562 2.12168,-1.50562 0.57058,-10e-6 1.98767,-1.01631 3.148,-2.25844 1.16033,-1.24214 2.50766,-2.25843 2.99507,-2.25843 0.48741,0 2.18897,-1.35506 3.78023,-3.01125 2.5075,-2.60985 3.3293,-3.01125 6.17246,-3.01125 2.41688,0 3.56739,0.39636 4.3669,1.50563 0.59686,0.82809 1.61316,1.50562 2.25844,1.50562 0.64528,-1e-5 1.66157,0.67752 2.25843,1.50562 0.59686,0.8281 1.61316,1.50563 2.25844,1.50563 0.64528,-10e-6 1.66157,0.67752 2.25843,1.50562 0.59686,0.82809 1.6879,1.50562 2.42458,1.50562 0.73669,0 1.33948,0.33877 1.33948,0.75282 0,0.41404 0.60278,0.75281 1.33947,0.75281 0.73669,-10e-6 1.82773,0.67752 2.42459,1.50562 0.59686,0.82809 1.68789,1.50562 2.42458,1.50562 0.73668,0 1.33948,0.33877 1.33948,0.75281 0,0.41405 0.67753,0.75282 1.50562,0.75282 0.82809,0 1.50562,0.33876 1.50562,0.75281 0,0.41404 0.67753,0.75281 1.50562,0.75281 1.38016,0 1.50563,0.50189 1.50563,6.02251 0,3.51314 -0.31368,6.02249 -0.75281,6.02249 -0.45625,0 -0.75282,3.26216 -0.75282,8.28093 l 0,8.28092 3.01125,0 c 1.65619,0 3.01125,0.33877 3.01125,0.75282 0,0.41404 1.01629,0.75281 2.25843,0.75281 1.24214,0 2.25844,0.33876 2.25844,0.75281 0,0.41404 1.35506,0.75281 3.01124,0.75281 1.65619,0 3.01125,0.33877 3.01125,0.75281 0,0.41405 1.35506,0.75281 3.01125,0.75281 1.65618,0 3.01124,0.33877 3.01124,0.75281 0,1.11808 2.20682,0.91173 3.44058,-0.32205 0.5915,-0.59148 1.07629,-1.60778 1.07629,-2.25843 0,-0.65066 0.33877,-1.18357 0.75281,-1.18357 0.41405,0 0.75281,-0.67753 0.75281,-1.50563 0,-0.82809 0.33877,-1.50562 0.75282,-1.50562 0.41404,0 0.75281,-0.67753 0.75281,-1.50562 0,-0.8281 0.33876,-1.50563 0.75281,-1.50563 0.41405,0 0.75281,-1.01629 0.75281,-2.25843 0,-1.24214 0.33877,-2.25843 0.75281,-2.25843 0.41405,0 0.75281,-0.67754 0.75281,-1.50563 0,-0.82809 0.33877,-1.50562 0.75282,-1.50562 0.41404,0 0.75281,-0.87025 0.75281,-1.93495 0,-3.26818 1.57184,-4.08754 7.85011,-4.08754 3.29803,0 5.7005,0.31723 5.7005,0.75281 0,0.45168 3.01124,0.75281 7.52811,0.75281 4.51687,0 7.52812,-0.30113 7.52812,-0.75281 0,-0.41405 1.88655,-0.75281 4.19339,-0.75281 4.31655,0 6.34597,1.06665 6.34597,3.33473 0,0.65065 0.33876,1.18214 0.75281,1.18214 0.41404,0 0.75281,0.67753 0.75281,1.50562 0,0.82809 0.33876,1.50562 0.75281,1.50562 0.41405,0 0.75281,0.67753 0.75281,1.50563 0,0.82809 0.33877,1.50562 0.75281,1.50562 0.41405,0 0.75282,1.01629 0.75282,2.25843 0,1.24214 0.33876,2.25844 0.75281,2.25844 0.41404,0 0.75281,0.67753 0.75281,1.50562 0,0.82809 0.33876,1.50562 0.75281,1.50562 0.41405,0 0.75281,0.67753 0.75281,1.50563 0,0.82809 0.33877,1.50562 0.75281,1.50562 0.41405,0 0.75281,0.67753 0.75281,1.50562 0,1.25471 0.50188,1.50563 3.01125,1.50563 1.65619,0 3.01125,-0.33877 3.01125,-0.75282 0,-0.41404 1.35506,-0.75281 3.01124,-0.75281 1.65619,0 3.01125,-0.33876 3.01125,-0.75281 0,-0.41404 1.35506,-0.75281 3.01125,-0.75281 1.65618,0 3.01124,-0.33877 3.01124,-0.75281 0,-0.41405 1.0163,-0.75281 2.25844,-0.75281 1.24214,0 2.25843,-0.33877 2.25843,-0.75281 0,-0.41405 1.0163,-0.75282 2.25844,-0.75282 2.25843,0 2.25843,0 2.25843,-4.51687 0,-2.50934 -0.33458,-4.51686 -0.75281,-4.51686 -0.43914,0 -0.75281,-2.50935 -0.75281,-6.0225 0,-3.51314 -0.31368,-6.02249 -0.75281,-6.02249 -1.15516,0 -0.89395,-5.23591 0.322,-6.45185 0.5915,-0.59149 1.60779,-1.07628 2.25843,-1.07628 0.65065,0 1.18362,-0.33877 1.18362,-0.75281 0,-0.41406 0.67753,-0.75281 1.50563,-0.75281 0.82809,0 1.50562,-0.33878 1.50562,-0.75282 0,-0.41405 0.67753,-0.75281 1.50562,-0.75281 0.8281,0 1.50563,-0.33877 1.50563,-0.75281 0,-0.41405 0.60278,-0.75281 1.33947,-0.75281 0.73669,0 1.82773,-0.67753 2.42458,-1.50562 0.59686,-0.8281 1.6879,-1.50563 2.42459,-1.50563 0.73668,0 1.33947,-0.33877 1.33947,-0.75281 0,-0.41405 0.60279,-0.75281 1.33948,-0.75281 0.73668,0 1.82772,-0.67753 2.42458,-1.50562 0.59686,-0.8281 1.55112,-1.50563 2.12169,-1.50563 0.57057,0 1.98766,-1.0163 3.14799,-2.25843 2.44831,-2.62091 5.20785,-2.92753 6.77531,-0.75281 0.59685,0.82809 1.55112,1.50562 2.12169,1.50562 0.57057,0 1.98765,1.0163 3.14799,2.25844 1.16033,1.24213 2.51539,2.25843 3.01124,2.25843 0.49586,0 1.85092,1.0163 3.01125,2.25844 1.16033,1.24213 2.57594,2.25843 3.14652,2.25843 0.57057,-10e-6 1.5263,0.67752 2.12316,1.50562 0.59686,0.8281 1.54187,1.50563 2.10111,1.50563 1.22717,-1e-5 3.16857,-1.82745 3.16857,-2.98332 0,-0.45809 3.38765,-4.19723 7.52812,-8.30886 6.79608,-6.74873 8.89919,-9.78655 6.7753,-9.78655 -0.41405,-10e-6 -0.75281,-0.60285 -0.75281,-1.33948 0,-0.7367 -0.67753,-1.82775 -1.50562,-2.42458 -0.8281,-0.59686 -1.50563,-1.55112 -1.50563,-2.12169 0,-0.57057 -1.01629,-1.98766 -2.25843,-3.14799 -1.24214,-1.16034 -2.25844,-2.51539 -2.25844,-3.01124 0,-0.49586 -1.01629,-1.85092 -2.25843,-3.01125 -1.84422,-1.72276 -2.25844,-2.71361 -2.25844,-5.40495 0,-2.43223 0.39452,-3.58076 1.50563,-4.3816 0.82809,-0.59686 1.50562,-1.61315 1.50562,-2.25843 0,-0.64528 0.67753,-1.66159 1.50562,-2.25844 1.30237,-0.97421 1.12926,-2.71833 2.25844,-3.76406 0.41404,0 0.75281,-0.60279 0.75281,-1.33947 0.0716,-2.12862 3.42315,-4.07387 3.76406,-6.18864 0.97486,-1.20264 0.3619,-3.19335 1.50562,-4.51687 0.76664,-0.79193 0.52538,-2.16601 1.50562,-3.01125 0.41405,0 0.75282,-0.67753 0.75282,-1.50562 0,-1.3941 0.50187,-1.50562 6.7753,-1.50562 4.01499,0 6.7753,0.3067 6.7753,0.75281 0,0.43913 2.50937,0.75281 6.0225,0.75281 3.51312,-10e-6 6.02249,0.31366 6.02249,0.75281 0,0.41405 0.33876,0.75281 0.75281,0.75281 0.41405,-10e-6 0.75281,-1.0163 0.75281,-2.25843 0,-1.24214 0.33877,-2.25844 0.75281,-2.25844 0.41405,0 0.75282,-1.35506 0.75282,-3.01124 0,-1.65619 0.33876,-3.01125 0.75281,-3.01125 0.41404,0 0.75281,-1.35506 0.75281,-3.01125 0,-1.65618 0.33876,-3.01124 0.75281,-3.01124 0.41405,0 0.75281,-1.35506 0.75281,-3.01125 0,-1.65618 0.33877,-3.01125 0.75281,-3.01125 0.41405,0 0.75281,-1.35506 0.75281,-3.01124 0,-2.50938 -0.25093,-3.01125 -1.50562,-3.01125 -0.82809,0 -1.50562,-0.33877 -1.50562,-0.75281 0,-0.41405 -0.67753,-0.75281 -1.50562,-0.75281 -0.8281,0 -1.50563,-0.33877 -1.50563,-0.75281 0,-0.41406 -0.67753,-0.75281 -1.50562,-0.75281 -0.82809,0 -1.50562,-0.33878 -1.50562,-0.75282 0,-0.41405 -1.0163,-0.75281 -2.25844,-0.75281 -1.24214,0 -2.25843,-0.33877 -2.25843,-0.75281 0,-0.41405 -0.67753,-0.75281 -1.50563,-0.75281 -0.82809,0 -1.50562,-0.33877 -1.50562,-0.75281 0,-0.41406 -0.67753,-0.75281 -1.50562,-0.75281 -0.8281,0 -1.50563,-0.33878 -1.50563,-0.75282 0,-0.41405 -1.01629,-0.75281 -2.25843,-0.75281 -2.13296,0 -2.25844,-0.16729 -2.25844,-3.01124 0,-1.65619 0.33877,-3.01125 0.75282,-3.01125 0.27049,0 0.47561,-1.17331 0.60577,-3.00978 l 0.14704,0 0,-4.51834 0,-3.00977 0,-4.51834 -0.14704,0.005 c -0.13013,-1.83905 -0.33507,-3.01419 -0.60577,-3.01419 -0.41405,0 -0.75282,-1.35506 -0.75282,-3.01124 0,-2.84396 0.12548,-3.01125 2.25844,-3.01125 1.24214,0 2.25843,-0.33876 2.25843,-0.75281 0,-0.41405 0.67753,-0.75281 1.50563,-0.75281 0.82809,0 1.50562,-0.33877 1.50562,-0.75281 0,-0.41405 0.67753,-0.75282 1.50562,-0.75282 0.8281,0 1.50563,-0.33876 1.50563,-0.75281 0,-0.41404 1.01629,-0.75281 2.25843,-0.75281 1.24214,0 2.25844,-0.33876 2.25844,-0.75281 0,-0.41405 0.67753,-0.75281 1.50562,-0.75281 0.82809,0 1.50562,-0.33877 1.50562,-0.75281 0,-0.41405 0.67753,-0.75281 1.50563,-0.75281 0.82809,0 1.50562,-0.33877 1.50562,-0.75282 0,-0.41404 0.67753,-0.75281 1.50562,-0.75281 1.25469,0 1.50562,-0.50187 1.50562,-3.01124 0,-1.65619 -0.33876,-3.01125 -0.75281,-3.01125 -0.41404,0 -0.75281,-1.35506 -0.75281,-3.01125 0,-1.65618 -0.33876,-3.01124 -0.75281,-3.01124 -0.41405,0 -0.75281,-1.35506 -0.75281,-3.01125 0,-1.65618 -0.33877,-3.01125 -0.75281,-3.01125 -0.41405,0 -0.75281,-1.35506 -0.75281,-3.01124 0,-1.65619 -0.33877,-3.01125 -0.75282,-3.01125 -0.41404,0 -0.75281,-1.01629 -0.75281,-2.25843 0,-1.24214 -0.33876,-2.25844 -0.75281,-2.25844 -0.41405,0 -0.75281,0.33877 -0.75281,0.75281 0,0.43914 -2.50937,0.75282 -6.02249,0.75282 -3.51313,0 -6.0225,0.31367 -6.0225,0.75281 0,0.44611 -2.76031,0.75281 -6.7753,0.75281 -6.27343,0 -6.7753,-0.11153 -6.7753,-1.50562 0,-0.8281 -0.33877,-1.50563 -0.75282,-1.50563 -0.41404,0 -0.75281,-0.67753 -0.75281,-1.50562 0,-0.82809 -0.33876,-1.50562 -0.75281,-1.50562 -0.41405,0 -0.75281,-1.0163 -0.75281,-2.25844 0,-1.24214 -0.33877,-2.25843 -0.75281,-2.25843 -0.41405,0 -0.75281,-0.60279 -0.75281,-1.33948 0,-0.73669 -0.67753,-1.82773 -1.50563,-2.42458 -0.82809,-0.59685 -1.50562,-1.6879 -1.50562,-2.42459 0,-0.73668 -0.33877,-1.33947 -0.75281,-1.33947 -0.41405,0 -0.75281,-0.60279 -0.75281,-1.33948 0,-0.73668 -0.67753,-1.82772 -1.50563,-2.42458 -0.82809,-0.59686 -1.50562,-1.61315 -1.50562,-2.25843 0,-0.64528 -0.67753,-1.66158 -1.50562,-2.25844 -1.11111,-0.80084 -1.50563,-1.9479 -1.50563,-4.38012 0,-2.69134 0.41422,-3.68367 2.25844,-5.40643 1.24214,-1.16033 2.25843,-2.51539 2.25843,-3.01124 0,-0.49586 1.0163,-1.85092 2.25844,-3.01125 1.24214,-1.16033 2.25843,-2.57595 2.25843,-3.14652 0,-0.57057 0.67753,-1.5263 1.50563,-2.12316 0.82809,-0.59686 1.50562,-1.6879 1.50562,-2.42459 0,-0.73668 0.33876,-1.33947 0.75281,-1.33947 2.12389,0 0.0208,-3.03782 -6.7753,-9.78655 -4.14047,-4.11161 -7.52812,-7.84935 -7.52812,-8.30739 0,-1.1559 -1.9414,-2.98478 -3.16857,-2.98478 -0.55924,0 -1.50425,0.67753 -2.10111,1.50562 -0.59686,0.82809 -1.55259,1.50562 -2.12316,1.50562 -0.57058,0 -1.98619,1.0163 -3.14652,2.25844 -1.16033,1.24214 -2.51539,2.25843 -3.01125,2.25843 -0.49585,0 -1.85091,1.0163 -3.01124,2.25844 -1.16034,1.24214 -2.57742,2.25843 -3.14799,2.25843 -0.57057,0 -1.52484,0.67753 -2.12169,1.50563 -1.56746,2.17473 -4.327,1.86811 -6.77531,-0.75282 -1.16033,-1.24213 -2.57742,-2.25843 -3.14799,-2.25843 -0.57057,0 -1.52483,-0.67753 -2.12169,-1.50562 -0.59686,-0.8281 -1.6879,-1.50563 -2.42458,-1.50563 -0.73669,0 -1.33948,-0.33876 -1.33948,-0.75281 0,-0.41404 -0.60279,-0.75281 -1.33947,-0.75281 -0.73669,0 -1.82773,-0.67753 -2.42459,-1.50562 -0.59685,-0.8281 -1.68789,-1.50563 -2.42458,-1.50563 -0.73669,0 -1.33947,-0.33876 -1.33947,-0.75281 0,-0.41404 -0.67753,-0.75281 -1.50563,-0.75281 -0.82809,0 -1.50562,-0.33876 -1.50562,-0.75281 0,-0.41405 -0.67753,-0.75281 -1.50562,-0.75281 -0.8281,0 -1.50563,-0.33877 -1.50563,-0.75281 0,-0.41405 -0.53297,-0.75281 -1.18362,-0.75281 -0.65064,0 -1.66693,-0.48333 -2.25843,-1.07482 -1.21595,-1.21596 -1.47716,-6.4533 -0.322,-6.4533 0.43913,0 0.75281,-2.50937 0.75281,-6.02249 0,-3.51313 0.31367,-6.0225 0.75281,-6.0225 0.41823,0 0.75281,-2.0075 0.75281,-4.51687 0,-4.51686 0,-4.51686 -2.25843,-4.51686 -1.24214,0 -2.25844,-0.33877 -2.25844,-0.75282 0,-0.41404 -1.01629,-0.75281 -2.25843,-0.75281 -1.24214,0 -2.25844,-0.33876 -2.25844,-0.75281 0,-0.41405 -1.35506,-0.75281 -3.01124,-0.75281 -1.65619,0 -3.01125,-0.33877 -3.01125,-0.75281 0,-0.41405 -1.35506,-0.75281 -3.01125,-0.75281 -1.65618,0 -3.01124,-0.33877 -3.01124,-0.75282 0,-0.41404 -1.35506,-0.75281 -3.01125,-0.75281 z"
           id="path6947" />
        <circle
           style="opacity:1;fill:none;fill-opacity:1;stroke:#ff0000;stroke-width:2.14150691;stroke-miterlimit:4;stroke-dasharray:none;stroke-opacity:1"
           id="circle6949"
           cx="392.68875"
           cy="779.29614"
           r="32.193027" />
        <circle
           r="50.126541"
           cy="779.29614"
           cx="392.68875"
           id="circle6951"
           style="opacity:1;fill:none;fill-opacity:1;stroke:#ff0000;stroke-width:2.14150691;stroke-miterlimit:4;stroke-dasharray:none;stroke-opacity:1" />
        <circle
           style="opacity:1;fill:none;fill-opacity:1;stroke:#ff0000;stroke-width:2.14150691;stroke-miterlimit:4;stroke-dasharray:none;stroke-opacity:1"
           id="circle6953"
           cx="392.68875"
           cy="779.29614"
           r="119.58523" />
      </g>
      <g
         id="g6893"
         transform="matrix(0.5628933,0.03080681,-0.03080681,0.5628933,91.768589,-198.52404)"
         style="stroke:#ff0000;stroke-width:2.14150691;stroke-miterlimit:4;stroke-dasharray:none;stroke-opacity:1">
        <path
           id="path6868"
           d="m 424.30747,621.74274 c -2.50937,0 -3.01125,0.25093 -3.01125,1.50562 0,0.8281 -0.33876,1.50563 -0.75281,1.50563 -0.41404,0 -0.75281,0.67753 -0.75281,1.50562 0,0.82809 -0.33876,1.50562 -0.75281,1.50562 -0.41405,0 -0.75281,0.67753 -0.75281,1.50563 0,0.82809 -0.33877,1.50562 -0.75281,1.50562 -0.41405,0 -0.75281,1.01629 -0.75281,2.25843 0,1.24214 -0.33877,2.25844 -0.75282,2.25844 -0.41404,0 -0.75281,0.67753 -0.75281,1.50562 0,0.82809 -0.33876,1.50562 -0.75281,1.50562 -0.41405,0 -0.75281,0.67753 -0.75281,1.50563 0,0.82809 -0.33877,1.50562 -0.75281,1.50562 -0.41405,0 -0.75281,0.53297 -0.75281,1.18362 0,2.26801 -2.02942,3.33325 -6.34597,3.33325 -2.30684,0 -4.19339,-0.33877 -4.19339,-0.75281 0,-0.45169 -3.01125,-0.75281 -7.52812,-0.75281 -4.51687,0 -7.52811,0.30112 -7.52811,0.75281 0,0.43559 -2.40247,0.75281 -5.7005,0.75281 -6.27827,0 -7.85011,-0.81792 -7.85011,-4.08607 0,-1.06469 -0.33877,-1.93642 -0.75281,-1.93642 -0.41405,0 -0.75282,-0.67753 -0.75282,-1.50563 0,-0.82809 -0.33876,-1.50562 -0.75281,-1.50562 -0.41404,0 -0.75281,-1.01629 -0.75281,-2.25843 0,-1.24214 -0.33876,-2.25844 -0.75281,-2.25844 -0.41405,0 -0.75281,-0.67753 -0.75281,-1.50562 0,-0.82809 -0.33877,-1.50562 -0.75281,-1.50562 -0.41405,0 -0.75282,-0.67753 -0.75282,-1.50563 0,-0.82809 -0.33876,-1.50562 -0.75281,-1.50562 -0.41404,0 -0.75281,-0.5315 -0.75281,-1.18215 0,-0.65064 -0.48479,-1.66693 -1.07629,-2.25843 -1.23376,-1.23377 -3.44058,-1.44158 -3.44058,-0.32348 0,0.41405 -1.35506,0.75281 -3.01124,0.75281 -1.65619,0 -3.01125,0.33877 -3.01125,0.75281 0,0.41405 -1.35506,0.75282 -3.01125,0.75282 -1.65618,0 -3.01124,0.33876 -3.01124,0.75281 0,0.41404 -1.0163,0.75281 -2.25844,0.75281 -1.24214,0 -2.25843,0.33876 -2.25843,0.75281 0,0.41405 -1.35506,0.75281 -3.01125,0.75281 l -3.01125,0 0,8.28093 c 0,5.01875 0.29657,8.28093 0.75282,8.28093 0.43913,0 0.75281,2.50937 0.75281,6.02249 0,5.52062 -0.12547,6.02249 -1.50563,6.02249 -0.82809,0 -1.50562,0.33877 -1.50562,0.75281 0,0.41405 -0.67753,0.75282 -1.50562,0.75282 -0.82809,0 -1.50562,0.33876 -1.50562,0.75281 0,0.41404 -0.6028,0.75281 -1.33948,0.75281 -0.73669,0 -1.82772,0.67753 -2.42458,1.50562 -0.59686,0.82809 -1.6879,1.50562 -2.42459,1.50562 -0.73669,0 -1.33947,0.33877 -1.33947,0.75282 0,0.41404 -0.60279,0.75281 -1.33948,0.75281 -0.73668,0 -1.82772,0.67753 -2.42458,1.50562 -0.59686,0.82809 -1.61315,1.50562 -2.25843,1.50562 -0.64528,0 -1.66158,0.67753 -2.25844,1.50563 -0.59686,0.82809 -1.61315,1.50562 -2.25843,1.50562 -0.64528,0 -1.66158,0.67753 -2.25844,1.50562 -0.79951,1.10926 -1.95002,1.50563 -4.3669,1.50563 -2.84316,0 -3.66496,-0.40144 -6.17246,-3.01125 -1.59126,-1.65619 -3.29282,-3.01125 -3.78023,-3.01125 -0.48741,0 -1.83474,-1.01629 -2.99507,-2.25843 -1.16033,-1.24214 -2.57742,-2.25844 -3.148,-2.25844 -0.57057,0 -1.52483,-0.67753 -2.12168,-1.50562 -0.59686,-0.82809 -1.52181,-1.50562 -2.05553,-1.50562 -1.18207,0 -19.77601,18.46678 -19.77601,19.64073 0,0.45901 1.0163,1.78328 2.25844,2.94362 1.24213,1.16033 2.25843,2.57741 2.25843,3.14798 0,0.57057 0.67753,1.52484 1.50562,2.1217 0.8281,0.59686 1.50563,1.55259 1.50563,2.12316 0,0.57057 1.01629,1.98619 2.25843,3.14652 1.24214,1.16033 2.25844,2.57741 2.25844,3.14798 0,0.57058 0.67753,1.52484 1.50562,2.1217 1.55506,1.12082 2.08371,3.76406 0.75281,3.76406 -0.41405,0 -0.75281,0.60278 -0.75281,1.33947 0,0.73668 -0.67753,1.82773 -1.50562,2.42458 -0.8281,0.59686 -1.50563,1.61316 -1.50563,2.25844 0,0.64528 -0.67753,1.66157 -1.50562,2.25843 -0.82809,0.59686 -1.50562,1.6879 -1.50562,2.42458 0,0.73669 -0.33877,1.33948 -0.75282,1.33948 -0.41404,0 -0.75281,0.60279 -0.75281,1.33947 0,0.73669 -0.67753,1.82774 -1.50562,2.42459 -0.82809,0.59685 -1.50562,1.68789 -1.50562,2.42458 0,0.73669 -0.33877,1.33948 -0.75281,1.33948 -0.41405,0 -0.75282,0.67753 -0.75282,1.50562 0,0.82809 -0.33876,1.50562 -0.75281,1.50562 -0.41404,0 -0.75281,0.67753 -0.75281,1.50563 0,0.82809 -0.33876,1.50562 -0.75281,1.50562 -0.41405,0 -0.75281,0.53297 -0.75281,1.18362 0,2.11785 -2.04063,3.33325 -5.59316,3.33325 -1.89279,0 -3.44058,-0.33877 -3.44058,-0.75281 0,-0.45169 -3.01125,-0.75281 -7.52812,-0.75281 -4.51687,0 -7.52811,-0.30113 -7.52811,-0.75282 0,-0.41404 -0.67753,-0.75281 -1.50563,-0.75281 -1.17104,0 -1.50562,0.50188 -1.50562,2.25844 0,1.24214 -0.33876,2.25843 -0.75281,2.25843 -0.41405,0 -0.75281,1.35506 -0.75281,3.01125 0,1.65618 -0.33877,3.01124 -0.75281,3.01124 -0.41405,0 -0.75282,1.35507 -0.75282,3.01125 0,1.65619 -0.33876,3.01125 -0.75281,3.01125 -0.41404,0 -0.75281,1.35506 -0.75281,3.01124 0,1.65619 -0.33876,3.01125 -0.75281,3.01125 -1.14248,0 -0.90019,3.72548 0.322,4.94767 0.5915,0.59149 1.60779,1.07482 2.25843,1.07482 0.65065,0 1.18363,0.33877 1.18363,0.75281 0,0.41405 0.67753,0.75282 1.50562,0.75282 0.82809,0 1.50562,0.33876 1.50562,0.75281 0,0.41404 1.0163,0.75281 2.25844,0.75281 1.24214,0 2.25843,0.33876 2.25843,0.75281 0,0.41405 0.67753,0.75281 1.50563,0.75281 0.82809,0 1.50562,0.33877 1.50562,0.75281 0,0.41405 0.67753,0.75282 1.50562,0.75282 0.8281,0 1.50563,0.33876 1.50563,0.75281 0,0.41404 0.5315,0.75281 1.18214,0.75281 2.80764,0 3.33473,1.83422 3.33473,11.61565 l 0,6.88116 c 0,9.78143 -0.52709,11.61418 -3.33473,11.61418 -0.65064,0 -1.18214,0.33877 -1.18214,0.75281 0,0.41405 -0.67753,0.75282 -1.50563,0.75282 -0.82809,0 -1.50562,0.33876 -1.50562,0.75281 0,0.41404 -0.67753,0.75281 -1.50562,0.75281 -0.8281,0 -1.50563,0.33876 -1.50563,0.75281 0,0.41405 -1.01629,0.75281 -2.25843,0.75281 -1.24214,0 -2.25844,0.33877 -2.25844,0.75281 0,0.41405 -0.67753,0.75282 -1.50562,0.75282 -0.82809,0 -1.50562,0.33876 -1.50562,0.75281 0,0.41404 -0.53298,0.75281 -1.18363,0.75281 -0.65064,0 -1.66693,0.48479 -2.25843,1.07628 -1.22219,1.2222 -1.46448,4.94621 -0.322,4.94621 0.41405,0 0.75281,1.35505 0.75281,3.01125 0,1.65618 0.33877,3.01124 0.75281,3.01124 0.41405,0 0.75281,1.35506 0.75281,3.01125 0,1.65618 0.33877,3.01125 0.75282,3.01125 0.41404,0 0.75281,1.35505 0.75281,3.01124 0,1.65618 0.33876,3.01125 0.75281,3.01125 0.41405,0 0.75281,1.01629 0.75281,2.25843 0,1.75655 0.33458,2.25844 1.50562,2.25844 0.8281,0 1.50563,-0.33877 1.50563,-0.75281 0,-0.45169 3.01124,-0.75281 7.52811,-0.75281 4.51687,0 7.52812,-0.30113 7.52812,-0.75282 0,-0.41405 1.54779,-0.75281 3.44058,-0.75281 3.55253,-1e-5 5.59316,1.21686 5.59316,3.33472 0,0.65064 0.33876,1.18215 0.75281,1.18215 0.41405,-10e-6 0.75281,0.67752 0.75281,1.50562 0,0.82809 0.33877,1.50563 0.75281,1.50563 0.41405,-10e-6 0.75281,0.67752 0.75281,1.50562 0,0.82809 0.33877,1.50562 0.75282,1.50562 0.41404,0 0.75281,0.60279 0.75281,1.33947 0,0.73669 0.67753,1.82774 1.50562,2.42459 0.82809,0.59685 1.50562,1.6879 1.50562,2.42458 0,0.73669 0.33877,1.33948 0.75281,1.33948 0.41405,0 0.75282,0.60278 0.75282,1.33947 0,0.73669 0.67753,1.82773 1.50562,2.42459 0.82809,0.59686 1.50562,1.61314 1.50562,2.25843 0,0.64527 0.67753,1.66158 1.50563,2.25844 0.82809,0.59686 1.50562,1.68789 1.50562,2.42458 0,0.73668 0.33876,1.33947 0.75281,1.33947 1.3309,0 0.80225,2.64324 -0.75281,3.76406 -0.82809,0.59686 -1.50562,1.55259 -1.50562,2.12316 0,0.57058 -1.0163,1.98619 -2.25844,3.14652 -1.24214,1.16033 -2.25843,2.57742 -2.25843,3.14799 0,0.57057 -0.67753,1.52484 -1.50563,2.12169 -0.82809,0.59686 -1.50562,1.5526 -1.50562,2.12317 0,0.57057 -1.0163,1.98618 -2.25843,3.14652 -1.24214,1.1603 -2.25844,2.48608 -2.25844,2.94507 0,1.17393 18.59394,19.63927 19.77601,19.63927 0.53372,0 1.45867,-0.67753 2.05553,-1.50562 0.59685,-0.8281 1.55111,-1.50562 2.12168,-1.50562 0.57058,-10e-6 1.98767,-1.01631 3.148,-2.25844 1.16033,-1.24214 2.50766,-2.25843 2.99507,-2.25843 0.48741,0 2.18897,-1.35506 3.78023,-3.01125 2.5075,-2.60985 3.3293,-3.01125 6.17246,-3.01125 2.41688,0 3.56739,0.39636 4.3669,1.50563 0.59686,0.82809 1.61316,1.50562 2.25844,1.50562 0.64528,-1e-5 1.66157,0.67752 2.25843,1.50562 0.59686,0.8281 1.61316,1.50563 2.25844,1.50563 0.64528,-10e-6 1.66157,0.67752 2.25843,1.50562 0.59686,0.82809 1.6879,1.50562 2.42458,1.50562 0.73669,0 1.33948,0.33877 1.33948,0.75282 0,0.41404 0.60278,0.75281 1.33947,0.75281 0.73669,-10e-6 1.82773,0.67752 2.42459,1.50562 0.59686,0.82809 1.68789,1.50562 2.42458,1.50562 0.73668,0 1.33948,0.33877 1.33948,0.75281 0,0.41405 0.67753,0.75282 1.50562,0.75282 0.82809,0 1.50562,0.33876 1.50562,0.75281 0,0.41404 0.67753,0.75281 1.50562,0.75281 1.38016,0 1.50563,0.50189 1.50563,6.02251 0,3.51314 -0.31368,6.02249 -0.75281,6.02249 -0.45625,0 -0.75282,3.26216 -0.75282,8.28093 l 0,8.28092 3.01125,0 c 1.65619,0 3.01125,0.33877 3.01125,0.75282 0,0.41404 1.01629,0.75281 2.25843,0.75281 1.24214,0 2.25844,0.33876 2.25844,0.75281 0,0.41404 1.35506,0.75281 3.01124,0.75281 1.65619,0 3.01125,0.33877 3.01125,0.75281 0,0.41405 1.35506,0.75281 3.01125,0.75281 1.65618,0 3.01124,0.33877 3.01124,0.75281 0,1.11808 2.20682,0.91173 3.44058,-0.32205 0.5915,-0.59148 1.07629,-1.60778 1.07629,-2.25843 0,-0.65066 0.33877,-1.18357 0.75281,-1.18357 0.41405,0 0.75281,-0.67753 0.75281,-1.50563 0,-0.82809 0.33877,-1.50562 0.75282,-1.50562 0.41404,0 0.75281,-0.67753 0.75281,-1.50562 0,-0.8281 0.33876,-1.50563 0.75281,-1.50563 0.41405,0 0.75281,-1.01629 0.75281,-2.25843 0,-1.24214 0.33877,-2.25843 0.75281,-2.25843 0.41405,0 0.75281,-0.67754 0.75281,-1.50563 0,-0.82809 0.33877,-1.50562 0.75282,-1.50562 0.41404,0 0.75281,-0.87025 0.75281,-1.93495 0,-3.26818 1.57184,-4.08754 7.85011,-4.08754 3.29803,0 5.7005,0.31723 5.7005,0.75281 0,0.45168 3.01124,0.75281 7.52811,0.75281 4.51687,0 7.52812,-0.30113 7.52812,-0.75281 0,-0.41405 1.88655,-0.75281 4.19339,-0.75281 4.31655,0 6.34597,1.06665 6.34597,3.33473 0,0.65065 0.33876,1.18214 0.75281,1.18214 0.41404,0 0.75281,0.67753 0.75281,1.50562 0,0.82809 0.33876,1.50562 0.75281,1.50562 0.41405,0 0.75281,0.67753 0.75281,1.50563 0,0.82809 0.33877,1.50562 0.75281,1.50562 0.41405,0 0.75282,1.01629 0.75282,2.25843 0,1.24214 0.33876,2.25844 0.75281,2.25844 0.41404,0 0.75281,0.67753 0.75281,1.50562 0,0.82809 0.33876,1.50562 0.75281,1.50562 0.41405,0 0.75281,0.67753 0.75281,1.50563 0,0.82809 0.33877,1.50562 0.75281,1.50562 0.41405,0 0.75281,0.67753 0.75281,1.50562 0,1.25471 0.50188,1.50563 3.01125,1.50563 1.65619,0 3.01125,-0.33877 3.01125,-0.75282 0,-0.41404 1.35506,-0.75281 3.01124,-0.75281 1.65619,0 3.01125,-0.33876 3.01125,-0.75281 0,-0.41404 1.35506,-0.75281 3.01125,-0.75281 1.65618,0 3.01124,-0.33877 3.01124,-0.75281 0,-0.41405 1.0163,-0.75281 2.25844,-0.75281 1.24214,0 2.25843,-0.33877 2.25843,-0.75281 0,-0.41405 1.0163,-0.75282 2.25844,-0.75282 2.25843,0 2.25843,0 2.25843,-4.51687 0,-2.50934 -0.33458,-4.51686 -0.75281,-4.51686 -0.43914,0 -0.75281,-2.50935 -0.75281,-6.0225 0,-3.51314 -0.31368,-6.02249 -0.75281,-6.02249 -1.15516,0 -0.89395,-5.23591 0.322,-6.45185 0.5915,-0.59149 1.60779,-1.07628 2.25843,-1.07628 0.65065,0 1.18362,-0.33877 1.18362,-0.75281 0,-0.41406 0.67753,-0.75281 1.50563,-0.75281 0.82809,0 1.50562,-0.33878 1.50562,-0.75282 0,-0.41405 0.67753,-0.75281 1.50562,-0.75281 0.8281,0 1.50563,-0.33877 1.50563,-0.75281 0,-0.41405 0.60278,-0.75281 1.33947,-0.75281 0.73669,0 1.82773,-0.67753 2.42458,-1.50562 0.59686,-0.8281 1.6879,-1.50563 2.42459,-1.50563 0.73668,0 1.33947,-0.33877 1.33947,-0.75281 0,-0.41405 0.60279,-0.75281 1.33948,-0.75281 0.73668,0 1.82772,-0.67753 2.42458,-1.50562 0.59686,-0.8281 1.55112,-1.50563 2.12169,-1.50563 0.57057,0 1.98766,-1.0163 3.14799,-2.25843 2.44831,-2.62091 5.20785,-2.92753 6.77531,-0.75281 0.59685,0.82809 1.55112,1.50562 2.12169,1.50562 0.57057,0 1.98765,1.0163 3.14799,2.25844 1.16033,1.24213 2.51539,2.25843 3.01124,2.25843 0.49586,0 1.85092,1.0163 3.01125,2.25844 1.16033,1.24213 2.57594,2.25843 3.14652,2.25843 0.57057,-10e-6 1.5263,0.67752 2.12316,1.50562 0.59686,0.8281 1.54187,1.50563 2.10111,1.50563 1.22717,-1e-5 3.16857,-1.82745 3.16857,-2.98332 0,-0.45809 3.38765,-4.19723 7.52812,-8.30886 6.79608,-6.74873 8.89919,-9.78655 6.7753,-9.78655 -0.41405,-10e-6 -0.75281,-0.60285 -0.75281,-1.33948 0,-0.7367 -0.67753,-1.82775 -1.50562,-2.42458 -0.8281,-0.59686 -1.50563,-1.55112 -1.50563,-2.12169 0,-0.57057 -1.01629,-1.98766 -2.25843,-3.14799 -1.24214,-1.16034 -2.25844,-2.51539 -2.25844,-3.01124 0,-0.49586 -1.01629,-1.85092 -2.25843,-3.01125 -1.84422,-1.72276 -2.25844,-2.71361 -2.25844,-5.40495 0,-2.43223 0.39452,-3.58076 1.50563,-4.3816 0.82809,-0.59686 1.50562,-1.61315 1.50562,-2.25843 0,-0.64528 0.67753,-1.66159 1.50562,-2.25844 1.30237,-0.97421 1.12926,-2.71833 2.25844,-3.76406 0.41404,0 0.75281,-0.60279 0.75281,-1.33947 0.0716,-2.12862 3.42315,-4.07387 3.76406,-6.18864 0.97486,-1.20264 0.3619,-3.19335 1.50562,-4.51687 0.76664,-0.79193 0.52538,-2.16601 1.50562,-3.01125 0.41405,0 0.75282,-0.67753 0.75282,-1.50562 0,-1.3941 0.50187,-1.50562 6.7753,-1.50562 4.01499,0 6.7753,0.3067 6.7753,0.75281 0,0.43913 2.50937,0.75281 6.0225,0.75281 3.51312,-10e-6 6.02249,0.31366 6.02249,0.75281 0,0.41405 0.33876,0.75281 0.75281,0.75281 0.41405,-10e-6 0.75281,-1.0163 0.75281,-2.25843 0,-1.24214 0.33877,-2.25844 0.75281,-2.25844 0.41405,0 0.75282,-1.35506 0.75282,-3.01124 0,-1.65619 0.33876,-3.01125 0.75281,-3.01125 0.41404,0 0.75281,-1.35506 0.75281,-3.01125 0,-1.65618 0.33876,-3.01124 0.75281,-3.01124 0.41405,0 0.75281,-1.35506 0.75281,-3.01125 0,-1.65618 0.33877,-3.01125 0.75281,-3.01125 0.41405,0 0.75281,-1.35506 0.75281,-3.01124 0,-2.50938 -0.25093,-3.01125 -1.50562,-3.01125 -0.82809,0 -1.50562,-0.33877 -1.50562,-0.75281 0,-0.41405 -0.67753,-0.75281 -1.50562,-0.75281 -0.8281,0 -1.50563,-0.33877 -1.50563,-0.75281 0,-0.41406 -0.67753,-0.75281 -1.50562,-0.75281 -0.82809,0 -1.50562,-0.33878 -1.50562,-0.75282 0,-0.41405 -1.0163,-0.75281 -2.25844,-0.75281 -1.24214,0 -2.25843,-0.33877 -2.25843,-0.75281 0,-0.41405 -0.67753,-0.75281 -1.50563,-0.75281 -0.82809,0 -1.50562,-0.33877 -1.50562,-0.75281 0,-0.41406 -0.67753,-0.75281 -1.50562,-0.75281 -0.8281,0 -1.50563,-0.33878 -1.50563,-0.75282 0,-0.41405 -1.01629,-0.75281 -2.25843,-0.75281 -2.13296,0 -2.25844,-0.16729 -2.25844,-3.01124 0,-1.65619 0.33877,-3.01125 0.75282,-3.01125 0.27049,0 0.47561,-1.17331 0.60577,-3.00978 l 0.14704,0 0,-4.51834 0,-3.00977 0,-4.51834 -0.14704,0.005 c -0.13013,-1.83905 -0.33507,-3.01419 -0.60577,-3.01419 -0.41405,0 -0.75282,-1.35506 -0.75282,-3.01124 0,-2.84396 0.12548,-3.01125 2.25844,-3.01125 1.24214,0 2.25843,-0.33876 2.25843,-0.75281 0,-0.41405 0.67753,-0.75281 1.50563,-0.75281 0.82809,0 1.50562,-0.33877 1.50562,-0.75281 0,-0.41405 0.67753,-0.75282 1.50562,-0.75282 0.8281,0 1.50563,-0.33876 1.50563,-0.75281 0,-0.41404 1.01629,-0.75281 2.25843,-0.75281 1.24214,0 2.25844,-0.33876 2.25844,-0.75281 0,-0.41405 0.67753,-0.75281 1.50562,-0.75281 0.82809,0 1.50562,-0.33877 1.50562,-0.75281 0,-0.41405 0.67753,-0.75281 1.50563,-0.75281 0.82809,0 1.50562,-0.33877 1.50562,-0.75282 0,-0.41404 0.67753,-0.75281 1.50562,-0.75281 1.25469,0 1.50562,-0.50187 1.50562,-3.01124 0,-1.65619 -0.33876,-3.01125 -0.75281,-3.01125 -0.41404,0 -0.75281,-1.35506 -0.75281,-3.01125 0,-1.65618 -0.33876,-3.01124 -0.75281,-3.01124 -0.41405,0 -0.75281,-1.35506 -0.75281,-3.01125 0,-1.65618 -0.33877,-3.01125 -0.75281,-3.01125 -0.41405,0 -0.75281,-1.35506 -0.75281,-3.01124 0,-1.65619 -0.33877,-3.01125 -0.75282,-3.01125 -0.41404,0 -0.75281,-1.01629 -0.75281,-2.25843 0,-1.24214 -0.33876,-2.25844 -0.75281,-2.25844 -0.41405,0 -0.75281,0.33877 -0.75281,0.75281 0,0.43914 -2.50937,0.75282 -6.02249,0.75282 -3.51313,0 -6.0225,0.31367 -6.0225,0.75281 0,0.44611 -2.76031,0.75281 -6.7753,0.75281 -6.27343,0 -6.7753,-0.11153 -6.7753,-1.50562 0,-0.8281 -0.33877,-1.50563 -0.75282,-1.50563 -0.41404,0 -0.75281,-0.67753 -0.75281,-1.50562 0,-0.82809 -0.33876,-1.50562 -0.75281,-1.50562 -0.41405,0 -0.75281,-1.0163 -0.75281,-2.25844 0,-1.24214 -0.33877,-2.25843 -0.75281,-2.25843 -0.41405,0 -0.75281,-0.60279 -0.75281,-1.33948 0,-0.73669 -0.67753,-1.82773 -1.50563,-2.42458 -0.82809,-0.59685 -1.50562,-1.6879 -1.50562,-2.42459 0,-0.73668 -0.33877,-1.33947 -0.75281,-1.33947 -0.41405,0 -0.75281,-0.60279 -0.75281,-1.33948 0,-0.73668 -0.67753,-1.82772 -1.50563,-2.42458 -0.82809,-0.59686 -1.50562,-1.61315 -1.50562,-2.25843 0,-0.64528 -0.67753,-1.66158 -1.50562,-2.25844 -1.11111,-0.80084 -1.50563,-1.9479 -1.50563,-4.38012 0,-2.69134 0.41422,-3.68367 2.25844,-5.40643 1.24214,-1.16033 2.25843,-2.51539 2.25843,-3.01124 0,-0.49586 1.0163,-1.85092 2.25844,-3.01125 1.24214,-1.16033 2.25843,-2.57595 2.25843,-3.14652 0,-0.57057 0.67753,-1.5263 1.50563,-2.12316 0.82809,-0.59686 1.50562,-1.6879 1.50562,-2.42459 0,-0.73668 0.33876,-1.33947 0.75281,-1.33947 2.12389,0 0.0208,-3.03782 -6.7753,-9.78655 -4.14047,-4.11161 -7.52812,-7.84935 -7.52812,-8.30739 0,-1.1559 -1.9414,-2.98478 -3.16857,-2.98478 -0.55924,0 -1.50425,0.67753 -2.10111,1.50562 -0.59686,0.82809 -1.55259,1.50562 -2.12316,1.50562 -0.57058,0 -1.98619,1.0163 -3.14652,2.25844 -1.16033,1.24214 -2.51539,2.25843 -3.01125,2.25843 -0.49585,0 -1.85091,1.0163 -3.01124,2.25844 -1.16034,1.24214 -2.57742,2.25843 -3.14799,2.25843 -0.57057,0 -1.52484,0.67753 -2.12169,1.50563 -1.56746,2.17473 -4.327,1.86811 -6.77531,-0.75282 -1.16033,-1.24213 -2.57742,-2.25843 -3.14799,-2.25843 -0.57057,0 -1.52483,-0.67753 -2.12169,-1.50562 -0.59686,-0.8281 -1.6879,-1.50563 -2.42458,-1.50563 -0.73669,0 -1.33948,-0.33876 -1.33948,-0.75281 0,-0.41404 -0.60279,-0.75281 -1.33947,-0.75281 -0.73669,0 -1.82773,-0.67753 -2.42459,-1.50562 -0.59685,-0.8281 -1.68789,-1.50563 -2.42458,-1.50563 -0.73669,0 -1.33947,-0.33876 -1.33947,-0.75281 0,-0.41404 -0.67753,-0.75281 -1.50563,-0.75281 -0.82809,0 -1.50562,-0.33876 -1.50562,-0.75281 0,-0.41405 -0.67753,-0.75281 -1.50562,-0.75281 -0.8281,0 -1.50563,-0.33877 -1.50563,-0.75281 0,-0.41405 -0.53297,-0.75281 -1.18362,-0.75281 -0.65064,0 -1.66693,-0.48333 -2.25843,-1.07482 -1.21595,-1.21596 -1.47716,-6.4533 -0.322,-6.4533 0.43913,0 0.75281,-2.50937 0.75281,-6.02249 0,-3.51313 0.31367,-6.0225 0.75281,-6.0225 0.41823,0 0.75281,-2.0075 0.75281,-4.51687 0,-4.51686 0,-4.51686 -2.25843,-4.51686 -1.24214,0 -2.25844,-0.33877 -2.25844,-0.75282 0,-0.41404 -1.01629,-0.75281 -2.25843,-0.75281 -1.24214,0 -2.25844,-0.33876 -2.25844,-0.75281 0,-0.41405 -1.35506,-0.75281 -3.01124,-0.75281 -1.65619,0 -3.01125,-0.33877 -3.01125,-0.75281 0,-0.41405 -1.35506,-0.75281 -3.01125,-0.75281 -1.65618,0 -3.01124,-0.33877 -3.01124,-0.75282 0,-0.41404 -1.35506,-0.75281 -3.01125,-0.75281 z"
           style="fill:none;stroke:#ff0000;stroke-width:2.14150691;stroke-miterlimit:4;stroke-dasharray:none;stroke-opacity:1"
           inkscape:connector-curvature="0" />
        <circle
           r="32.193027"
           cy="779.29614"
           cx="392.68875"
           id="circle6866"
           style="opacity:1;fill:none;fill-opacity:1;stroke:#ff0000;stroke-width:2.14150691;stroke-miterlimit:4;stroke-dasharray:none;stroke-opacity:1" />
        <circle
           style="opacity:1;fill:none;fill-opacity:1;stroke:#ff0000;stroke-width:2.14150691;stroke-miterlimit:4;stroke-dasharray:none;stroke-opacity:1"
           id="circle6864"
           cx="392.68875"
           cy="779.29614"
           r="50.126541" />
        <circle
           r="119.58523"
           cy="779.29614"
           cx="392.68875"
           id="path6862"
           style="opacity:1;fill:none;fill-opacity:1;stroke:#ff0000;stroke-width:2.14150691;stroke-miterlimit:4;stroke-dasharray:none;stroke-opacity:1" />
      </g>
      <text
         xml:space="preserve"
         style="font-style:italic;font-variant:normal;font-weight:normal;font-stretch:normal;font-size:247.1925354px;line-height:125%;font-family:sans-serif;-inkscape-font-specification:'sans-serif, Italic';text-align:start;letter-spacing:0px;word-spacing:0px;writing-mode:lr-tb;text-anchor:start;fill:#000000;fill-opacity:1;stroke:#000000;stroke-width:8.90409565;stroke-linecap:butt;stroke-linejoin:miter;stroke-miterlimit:4;stroke-dasharray:none;stroke-opacity:1"
         x="65.977936"
         y="299.31564"
         id="text4165"
         transform="scale(1.0174522,0.98284716)"><tspan
           sodipodi:role="line"
           x="65.977936"
           y="299.31564"
           id="tspan4167"
           style="stroke-width:8.90409565"><tspan
             x="65.977936"
             y="299.31564"
             id="tspan4169"
             style="stroke-width:8.90409565">N</tspan></tspan></text>
      <text
         xml:space="preserve"
         style="font-style:italic;font-variant:normal;font-weight:bold;font-stretch:normal;font-size:247.18942261px;line-height:125%;font-family:sans-serif;-inkscape-font-specification:'sans-serif, Bold Italic';text-align:start;letter-spacing:0px;word-spacing:0px;writing-mode:lr-tb;text-anchor:start;fill:#000000;fill-opacity:1;stroke:#000000;stroke-width:8.90409565;stroke-linecap:butt;stroke-linejoin:miter;stroke-miterlimit:4;stroke-dasharray:none;stroke-opacity:1"
         x="179.58714"
         y="299.3157"
         id="text4171"
         transform="scale(1.0174522,0.98284716)"><tspan
           sodipodi:role="line"
           x="179.58714"
           y="299.3157"
           id="tspan4173"
           style="stroke-width:8.90409565"><tspan
             x="179.58714"
             y="299.3157"
             style="font-style:italic;font-variant:normal;font-weight:normal;font-stretch:normal;font-size:247.1925354px;line-height:125%;font-family:sans-serif;-inkscape-font-specification:'sans-serif, Italic';text-align:start;writing-mode:lr-tb;text-anchor:start;fill:#000000;fill-opacity:1;stroke:#000000;stroke-width:8.90409565;stroke-miterlimit:4;stroke-dasharray:none;stroke-opacity:1"
             id="tspan4175">P</tspan></tspan></text>
    </g>
  </g>
</svg>
